<?xml version="1.0" standalone="no"?>
<!DOCTYPE svg PUBLIC "-//W3C//DTD SVG 20010904//EN"
 "http://www.w3.org/TR/2001/REC-SVG-20010904/DTD/svg10.dtd">
<svg version="1.0" xmlns="http://www.w3.org/2000/svg"
 width="170.000000pt" height="170.000000pt" viewBox="0 0 170.000000 170.000000"
 preserveAspectRatio="xMidYMid meet">
<metadata>
Created by potrace 1.11, written by Peter Selinger 2001-2013
</metadata>
<g transform="translate(0.000000,170.000000) scale(0.100000,-0.100000)"
fill="#000000" stroke="none">
<path d="M799 1647 c-35 -30 -122 -110 -194 -178 -135 -130 -247 -223 -328
-274 -26 -17 -47 -37 -47 -45 0 -9 25 -30 55 -48 90 -54 85 -29 85 -434 0
-217 -4 -367 -10 -383 -6 -15 -30 -52 -54 -84 -24 -31 -49 -66 -55 -79 -18
-35 9 -38 71 -8 130 64 200 59 412 -25 233 -92 336 -107 440 -61 92 41 192
159 267 315 60 125 38 159 -41 66 -96 -114 -203 -127 -391 -46 -113 49 -208
77 -258 77 l-31 0 0 138 0 138 72 50 c262 178 627 500 644 569 8 33 -2 40 -63
49 -87 12 -265 123 -414 259 -35 31 -71 57 -79 57 -9 0 -45 -24 -81 -53z m-26
-308 c50 -47 182 -125 263 -155 64 -23 72 -29 62 -42 -27 -32 -350 -262 -369
-262 -10 0 -13 473 -2 483 10 10 12 9 46 -24z"/>
</g>
</svg>
